<svg id="Layer_1" xmlns="http://www.w3.org/2000/svg" viewBox="0 0 164.66 296.85"><defs><style>.cls-1{fill:#53565a;stroke-width:0}</style></defs><path class="cls-1" d="m96.88 78.66-3.62 6.29-3.65 6.31H75.06l-3.73-6.45-3.55-6.15 7.28-12.6h14.55l7.27 12.6zM103.14 141.24c-3.75 18.13-20.81 102.75-20.81 102.75s-17.04-84.62-20.79-102.75h14.55l6.24 49.82 6.26-49.82h14.55ZM123.07 124.83v8.18H41.6v-8.24h29.45l.25-2.08 2.76-23.2h16.52l2.78 23.41.23 1.93h29.48z"/><path class="cls-1" d="M82.33 0 0 148.43l82.33 148.42 82.33-148.43L82.33 0ZM9.65 148.42l72.68-131.1 72.68 131.11-72.68 131.11L9.65 148.42Z"/></svg>