<svg id="Layer_1" xmlns="http://www.w3.org/2000/svg" viewBox="0 0 617.77 255"><defs><style>.cls-1{fill:#fff;stroke-width:0}</style></defs><path class="cls-1" d="M207.69 114.54h26.56c1.19 10.74 8.21 15.22 20.89 15.22 8.66 0 17.16-3.13 17.16-11.19 0-8.51-8.66-10.3-23.28-13.88-18.5-4.33-38.05-10-38.05-32.38s18.5-32.83 42.38-32.83 41.04 10.45 42.08 32.83h-25.82c-1.04-8.21-7.31-12.83-17.16-12.83-9.25 0-15.37 4.03-15.37 10 0 7.46 8.21 9.25 24.18 12.83 19.85 4.63 37.76 10.74 37.76 33.58s-19.1 34.77-43.72 34.77c-28.35 0-47.01-12.54-47.6-36.11ZM310.96 41.42h24.32v39.7h.45c5.52-7.31 12.09-11.64 22.68-11.64 16.71 0 26.56 11.94 26.56 28.95v49.69h-24.32v-44.77c0-8.06-4.03-13.58-11.94-13.58s-13.43 6.72-13.43 16.12v42.23h-24.32V41.42ZM394.82 126.78c0-16.86 13.43-21.94 29.25-24.03 14.33-1.79 19.4-3.28 19.4-8.51 0-4.92-3.13-8.21-10.45-8.21-7.76 0-11.64 3.43-12.39 9.85h-22.38c.6-14.18 11.49-26.26 34.62-26.26 11.49 0 19.25 2.09 24.77 6.27 6.57 4.78 9.7 12.24 9.7 21.79v38.5c0 6.12.6 9.55 2.69 10.89v1.04h-23.58c-1.19-1.64-1.94-4.63-2.54-8.51h-.3c-4.48 6.42-11.19 10.45-22.68 10.45-15.22 0-26.12-8.21-26.12-23.28Zm49.25-5.97v-9.1c-3.13 1.64-7.61 2.84-12.54 4.03-9.4 2.09-13.28 4.48-13.28 10.3 0 6.12 4.48 8.51 10.45 8.51 9.1 0 15.37-5.52 15.37-13.73ZM479.43 71.72h23.28v11.94h.45c5.37-9.1 11.64-13.13 20.89-13.13 2.24 0 3.73.15 4.78.6v20.89h-.6c-14.92-2.09-24.47 5.22-24.47 21.79v34.32h-24.32V71.72ZM538.23 71.72h23.28v9.25h.45c5.22-6.86 12.68-11.49 23.13-11.49 20.3 0 32.68 17.46 32.68 40.44 0 24.77-13.28 40.59-33.28 40.59-9.85 0-16.86-3.88-21.64-10.3h-.3v33.13h-24.32V71.71Zm54.91 39.09c0-13.13-4.92-21.79-15.37-21.79s-15.97 9.4-15.97 21.79 5.97 20.89 16.42 20.89c9.25 0 14.92-7.91 14.92-20.89ZM210.86 188.37h11.63c7.26 0 12.3 4.65 12.3 12.65s-4.79 12.55-12.62 12.55h-11.31v-25.2Zm10.72 19.1c3.38 0 5.75-2.19 5.75-6.45s-2.22-6.56-5.75-6.56h-3.35v13.01h3.35ZM244.51 188.37h19.63v5.99h-12.27v3.42h10.26v5.53h-10.26v3.95h12.62v6.31H244.5v-25.2ZM273.19 205.53h7.54c.25 2.01 1.8 2.96 4.23 2.96 1.44 0 3.21-.56 3.21-2.08s-1.69-1.9-4.79-2.68c-4.23-1.06-9.34-2.5-9.34-7.86 0-5.78 4.72-7.97 10.4-7.97 5.22 0 10.01 2.19 10.12 7.68h-7.3c-.21-1.37-1.2-2.26-3.21-2.26-1.62 0-2.75.74-2.75 1.76 0 1.48 2.15 1.69 5.92 2.61 4.23 1.02 8.46 2.68 8.46 8.04s-4.9 8.42-10.86 8.42c-6.56 0-11.53-2.82-11.63-8.64ZM305.4 188.37h7.37v25.2h-7.37v-25.2ZM341.56 210.89h-.07c-1.59 2.29-4.16 3.28-7.23 3.28-3.38 0-6.27-1.16-8.32-3.35-2.33-2.47-3.49-5.85-3.49-9.76 0-7.44 4.72-13.15 12.51-13.15 6.59 0 10.75 3.42 11.56 9.02h-7.12c-.39-1.62-1.9-2.96-4.16-2.96-3.52 0-5.32 2.96-5.32 7.08s2.04 7.19 5.6 7.19c2.68 0 3.98-1.45 4.44-3.14h-3.35v-5.22h10.4v13.68h-4.9l-.56-2.68ZM357.47 188.37h7.37l8.25 14.17h.07v-14.17h7.12v25.2h-7.61l-8-14.28h-.07v14.28h-7.12v-25.2ZM401.53 201.06c0-7.54 5.18-13.15 12.76-13.15 2.75 0 5.22.7 7.05 1.97 2.61 1.8 4.12 4.62 4.44 7.82h-7.37c-.18-1.97-1.83-3.74-4.23-3.74-3.49 0-5.18 2.96-5.18 7.08s1.97 7.08 5.25 7.08c2.57 0 4.12-1.69 4.37-3.95h7.44c-.21 2.78-1.48 5.25-3.28 6.98-2.15 2.08-4.83 3-8.49 3-7.68 0-12.76-5.57-12.76-13.11ZM434.4 201.06c0-7.54 4.93-13.15 12.76-13.15s12.83 5.6 12.83 13.15-5.01 13.11-12.83 13.11-12.76-5.57-12.76-13.11Zm18.11 0c0-4.12-1.8-7.26-5.32-7.26s-5.32 3.14-5.32 7.26 1.8 7.23 5.32 7.23 5.32-3.1 5.32-7.23ZM469.7 188.37h12.51c5.15 0 9.52 2.36 9.52 7.51 0 2.89-1.48 4.93-4.12 6.13v.11c2.04.78 3.1 2.19 3.52 4.16.67 3.03.11 6.66 1.02 6.91v.39h-7.26c-.71-.49-.42-3.6-.95-5.85-.46-1.94-1.3-2.93-3.45-2.93h-3.42v8.78h-7.37v-25.2Zm7.36 11.17h3.95c2.12 0 3.28-.92 3.28-2.68 0-1.66-1.06-2.71-3.17-2.71h-4.05v5.39ZM501.91 188.37h11.6c3.21 0 5.53.85 7.19 2.33 1.8 1.59 2.82 3.88 2.82 6.66 0 4.86-3.6 8.53-8.67 8.53h-5.57v7.68h-7.37v-25.2Zm7.37 11.8h3.98c1.8 0 2.93-1.2 2.93-2.93s-1.09-2.78-3-2.78h-3.91v5.71ZM83.22 67.57l-3.11 5.4-3.13 5.42H64.47l-3.2-5.53-3.05-5.29 6.25-10.82h12.51l6.24 10.82zM88.6 121.33c-3.22 15.57-17.88 88.26-17.88 88.26s-14.64-72.69-17.86-88.26h12.5l5.36 42.79 5.38-42.79h12.5ZM105.71 107.23v7.03H35.74v-7.08h25.29l.22-1.79 2.37-19.93H77.8l2.39 20.11.2 1.66h25.32z"/><path class="cls-1" d="M70.72 0 0 127.5 70.72 255l70.72-127.5L70.72 0ZM8.29 127.5 70.72 14.88l62.44 112.62-62.44 112.63L8.29 127.5Z"/></svg>