<?xml version="1.0" encoding="UTF-8"?><svg id="Layer_1" xmlns="http://www.w3.org/2000/svg" viewBox="0 0 338.39 610.41"><defs><style>.cls-1{fill:#262626;stroke-width:0px;}</style></defs><path class="cls-1" d="m169.2,610.41l-4.14-7.52c-1.53-2.78-153.31-278.42-163.56-295.22l-1.5-2.46,1.5-2.46C11.75,285.94,163.52,10.3,165.06,7.52l4.14-7.52,4.14,7.52c1.53,2.78,153.31,278.42,163.56,295.22l1.5,2.46-1.5,2.46c-10.25,16.8-162.02,292.44-163.56,295.22l-4.14,7.52ZM11.02,305.2c16.87,29.13,134.03,241.76,158.17,285.6,24.15-43.84,141.3-256.48,158.17-285.6-16.86-29.1-134.03-241.76-158.17-285.61C145.05,63.44,27.89,276.08,11.02,305.2Z"/><path class="cls-1" d="m186.07,305.2l-16.88,56.06-16.88-56.06h-37.64c3.47,9.96,54.52,172.22,54.52,172.22,0,0,51.05-162.26,54.52-172.22h-37.64Z"/><path class="cls-1" d="m199.14,194.59c-1.91-1.85-29.94-32.01-29.94-32.01,0,0-28.04,30.16-29.94,32.01.97,1.28,8.78,12.56,16.18,23.28l-2.76,19.96h33.05l-2.76-19.96c7.4-10.72,15.21-22,16.18-23.28Z"/><polygon class="cls-1" points="258.2 282.75 80.2 282.75 92.64 260.29 245.75 260.29 258.2 282.75"/></svg>