<?xml version="1.0" encoding="UTF-8"?><svg id="Layer_1" xmlns="http://www.w3.org/2000/svg" viewBox="0 0 164.66 296.85"><defs><style>.cls-1{fill:#53565a;stroke-width:0px;}</style></defs><polygon class="cls-1" points="96.88 78.66 93.26 84.95 89.61 91.26 75.06 91.26 71.33 84.81 67.78 78.66 75.06 66.06 89.61 66.06 96.88 78.66"/><path class="cls-1" d="m103.14,141.24c-3.75,18.13-20.81,102.75-20.81,102.75,0,0-17.04-84.62-20.79-102.75h14.55l6.24,49.82,6.26-49.82h14.55Z"/><polygon class="cls-1" points="123.07 124.83 123.07 133.01 41.6 133.01 41.6 124.77 71.05 124.77 71.3 122.69 74.06 99.49 90.58 99.49 93.36 122.9 93.59 124.83 123.07 124.83"/><path class="cls-1" d="m82.33,0L0,148.43l82.33,148.42,82.33-148.43L82.33,0ZM9.65,148.42L82.33,17.32l72.68,131.11-72.68,131.11L9.65,148.42Z"/></svg>